<?xml version="1.0" encoding="utf-8"?>
<!-- Generator: Adobe Illustrator 23.0.4, SVG Export Plug-In . SVG Version: 6.00 Build 0)  -->
<svg version="1.1" id="Ebene_1" xmlns="http://www.w3.org/2000/svg" xmlns:xlink="http://www.w3.org/1999/xlink" x="0px" y="0px"
	 viewBox="0 0 100 100" style="enable-background:new 0 0 100 100;" xml:space="preserve">
<path d="M50,9.5C27.668,9.5,9.5,27.668,9.5,50c0,22.332,18.168,40.5,40.5,40.5c22.332,0,40.5-18.168,40.5-40.5
	C90.5,27.668,72.332,9.5,50,9.5z M77.422,30.1H84.1c2.675,4.565,4.457,9.71,5.111,15.2h-4.164l-1.801,5.1h-0.932L79.1,47.001V34.4
	L77.422,30.1z M67.594,14.65c3.62,1.809,6.922,4.157,9.806,6.94v8.456l-0.636-1.629L71,22.885V17.99L67.594,14.65z M83.495,29.1
	H78.4v-6.511C80.315,24.572,82.025,26.753,83.495,29.1z M31.24,19.889l7.387,2.097l-4.882,3.287l6.316,4.859l1.77-5.603L47.3,29.91
	v3.39h-4.863l-5.392,7.895l-1.887,4.184l-0.812-1.489l-5.827-1.979l-4.203,5.566l3.023,2.551l3.466,2.118l2.858,6.533l6.102,0.421
	l0.066,0.004l4.458-0.891l9.306,2.229l3.385,4.978l7.18,2.456l-3.731,6.369l-12.9,8.336l-3.344,4.765L43.2,86.033v-10.84
	l-7.682-7.683l2.995-5.473l-5.067-1.941l-2.772-4.852l-9.224-5.95l-2.722-13.708l7.74-13.47l-1.373-2.747
	c1.769-1.442,3.667-2.73,5.67-3.852L31.24,19.889z M50,89.5c-21.78,0-39.5-17.72-39.5-39.5c0-11.976,5.364-22.716,13.808-29.966
	l1.024,2.049l-7.659,13.33l2.877,14.492l9.375,6.049l2.828,4.949l4.332,1.658l-2.805,5.127l7.919,7.919v10.76l2.016,2.688
	l3.938-5.689l13.017-8.411l4.47-7.631l-8.021-2.743l-3.414-5.022l-9.896-2.37l-4.542,0.908l-5.431-0.374l-2.741-6.268l-3.672-2.237
	l-2.239-1.895l3.197-4.234l4.773,1.621l1.588,2.912l2.67-5.94l5.051-7.382H48.3v-4.809l-6.931-6.819l-1.831,5.796l-4.083-3.141
	l5.518-3.713l-8.812-2.502l-0.446-4.107C37.186,12.134,43.404,10.5,50,10.5c5.292,0,10.34,1.053,14.957,2.95l-0.007,0.008L70,18.41
	v4.905l5.876,5.572l2.224,5.608v12.904l3.785,4h2.068l1.801-5.1h3.567c0.114,1.219,0.179,2.452,0.179,3.7
	C89.5,71.78,71.78,89.5,50,89.5z"/>
</svg>
