<?xml version="1.0" encoding="utf-8"?>
<!-- Generator: Adobe Illustrator 23.0.4, SVG Export Plug-In . SVG Version: 6.00 Build 0)  -->
<svg version="1.1" id="Ebene_1" xmlns="http://www.w3.org/2000/svg" xmlns:xlink="http://www.w3.org/1999/xlink" x="0px" y="0px"
	 viewBox="0 0 100 100" style="enable-background:new 0 0 100 100;" xml:space="preserve">
<path d="M54.8,45.3v-13h-9.7v12.9L43.9,44l-4.4,4.4l3,3l4.4-4.4l-1.4-1.4h9l-1.3,1.3l4.4,4.4l3-3l-4.4-4.4L54.8,45.3z
	 M45.479,46.969l-2.97,2.97l-1.556-1.556l0.015-0.015L40.9,48.3l3-3l1.6,1.6l-0.045,0.045L45.479,46.969z M53.8,44.6h-7.7V33.3h7.7
	V44.6z M57.6,49.9l-3-3l1.6-1.6l3,3L57.6,49.9z"/>
<polygon points="40.969,48.369 40.954,48.383 42.51,49.939 45.479,46.969 45.455,46.945 42.5,49.9 "/>
<path d="M66,28.8c-0.3-5.1-3-9.6-7-12.3c-1-4-4.6-7-8.9-7c-4.3,0-8,3-8.9,7c-4,2.7-6.7,7.2-7,12.3c-2.2,0.1-3.9,1.9-3.9,4.1v23.2
	c0,2,1.5,3.7,3.5,4c0.2,0,0.4,0.1,0.6,0.1c0.2,0,0.4,0,0.6-0.1c0.9-0.1,1.8-0.6,2.4-1.2c0.4-0.4,0.7-1,0.9-1.5
	c0.3,1,0.8,1.9,1.4,2.8c-1,1.1-1.7,2.6-1.7,4.3v13.8c0,2,0.9,3.7,2.3,4.9v1.4h8V83c0.6-0.5,1.1-1.1,1.5-1.8v3c0,2,0.9,3.7,2.3,4.9
	v1.4h8V89c1.4-1.2,2.3-3,2.3-4.9V66.4c0-2.1-1-4-2.6-5.1c1-1.2,1.8-2.5,2.3-4c0.4,1.5,1.7,2.6,3.3,2.9c0.2,0,0.4,0.1,0.6,0.1
	s0.4,0,0.6-0.1c2-0.3,3.5-2,3.5-4V32.9C69.9,30.7,68.1,28.9,66,28.8z M57.5,15.4c0.4,1,0.7,2.1,0.7,3.3S57.9,21,57.5,22V15.4z
	 M43.5,13.7c1.5-1.9,3.9-3.2,6.5-3.2s5,1.3,6.5,3.2v10c-1.5,2-3.9,3.2-6.5,3.2s-5-1.3-6.5-3.2V13.7z M42.5,15.4V22
	c-0.4-1-0.7-2.1-0.7-3.3S42.1,16.4,42.5,15.4z M34.6,59.2c-0.1,0-0.3,0-0.4,0c-1.2,0-2.1-0.9-2.1-2.1c0-1.2,0.9-2.1,2.1-2.1
	s2.1,0.9,2.1,2.1C36.3,58.1,35.6,59,34.6,59.2z M37.3,56.1c0,0.2,0,0.4,0,0.6c-0.2-1.5-1.5-2.7-3.1-2.7c-1.5,0-2.8,1.1-3,2.6
	c0-0.2-0.1-0.3-0.1-0.5V32.9c0-1.7,1.4-3.1,3.1-3.1s3.1,1.4,3.1,3.1V56.1z M35.1,28.9c0.002-0.052,0.013-0.102,0.015-0.154
	C35.076,28.732,35.04,28.713,35,28.7c0.3-4.4,2.5-8.3,5.8-10.9c0,0.038,0,0.065,0,0.1c0,0.243,0,0.438,0,0.7c0,2.9,1.4,5.5,3.5,7.2
	c-0.023,0.012-0.045,0.027-0.068,0.039c0.023,0.019,0.044,0.042,0.068,0.061c-2.7,1.4-4.9,3.8-6,6.7C38.1,30.8,36.8,29.3,35.1,28.9z
	 M41.7,83.5h-0.6v-1.6h0.6V83.5z M41.3,80.9c0.4-1.2,1.5-2.1,2.8-2.1c1.3,0,2.4,0.9,2.8,2.1H41.3z M43,83.5h-0.3v-1.6H43V83.5z
	 M44.2,83.5H44v-1.6h0.2V83.5z M45.5,83.5h-0.3v-1.6h0.3V83.5z M47.1,83.5h-0.6v-1.6h0.6V83.5z M49.4,78.1c0,1.3-0.5,2.6-1.3,3.5
	c-0.1-2.1-1.9-3.8-4-3.8c-2.1,0-3.9,1.8-4,3.9c-0.8-0.9-1.3-2.1-1.3-3.5v-5.9h10.6V78.1z M49.4,71.3H38.8v-4h10.6V71.3z M49.4,66.3
	H38.8v-1.9c0-2.9,2.4-5.3,5.3-5.3c2.9,0,5.3,2.4,5.3,5.3V66.3z M53.5,89.5h-0.6v-1.6h0.6V89.5z M53.1,86.9c0.4-1.2,1.5-2.1,2.8-2.1
	c1.3,0,2.4,0.9,2.8,2.1H53.1z M54.8,89.5h-0.3v-1.6h0.3V89.5z M56,89.5h-0.2v-1.6H56V89.5z M57.3,89.5H57v-1.6h0.3V89.5z M58.9,89.5
	h-0.6v-1.6h0.6V89.5z M61.2,84.1c0,1.3-0.5,2.6-1.3,3.5c-0.1-2.1-1.9-3.8-4-3.8c-2.1,0-3.9,1.8-4,3.9c-0.8-0.9-1.3-2.1-1.3-3.5v-5.9
	h10.6V84.1z M61.2,77.3H50.6v-4h10.6V77.3z M61.2,66.4v5.9H50.6v-5.9c0-2.9,2.4-5.3,5.3-5.3C58.8,61.1,61.2,63.5,61.2,66.4z
	 M61.6,53.2c0,2.9-1.1,5.6-2.9,7.6c-0.8-0.4-1.8-0.7-2.8-0.7c-2.4,0-4.5,1.4-5.6,3.4c-0.4-3-3.1-5.4-6.2-5.4c-1.5,0-2.8,0.5-3.9,1.3
	c-0.157-0.257-0.303-0.522-0.443-0.791c-0.485-0.885-0.837-1.832-1.057-2.833c-0.02-0.087-0.037-0.175-0.055-0.263
	c-0.06-0.307-0.117-0.614-0.152-0.93C38.436,54.131,38.4,53.671,38.4,53.2v-1.6c2.9,3.1,7,5,11.6,5s8.7-1.9,11.6-5V53.2z M61.6,50.1
	c-2.8,3.4-6.9,5.5-11.6,5.5s-8.8-2.1-11.6-5.5v-13c0-4.7,2.8-8.7,6.8-10.6c1.4,0.9,3,1.4,4.8,1.4s3.4-0.5,4.8-1.4
	c4,1.8,6.8,5.9,6.8,10.6V50.1z M61.8,32.6c-0.021-0.055-0.048-0.106-0.07-0.16c-0.008,0.054-0.024,0.105-0.03,0.16
	c-1.1-2.9-3.3-5.3-6-6.7c2.1-1.7,3.5-4.3,3.4-7.1c0-0.3,0-0.6,0-0.8c0.07,0.053,0.131,0.116,0.2,0.17c0-0.086,0-0.169,0-0.27
	c3.2,2.6,5.4,6.5,5.7,11C63.3,29.3,61.9,30.7,61.8,32.6z M65.8,59.2c-1.2,0-2.1-0.9-2.1-2.1c0-1.2,0.9-2.1,2.1-2.1s2.1,0.9,2.1,2.1
	C67.9,58.3,67,59.2,65.8,59.2z M68.9,56.1c0,0.2,0,0.3-0.1,0.5c-0.2-1.5-1.5-2.6-3-2.6s-2.8,1.1-3,2.6c0-0.2-0.1-0.3-0.1-0.5V32.9
	c0-1.7,1.4-3.1,3.1-3.1c1.7,0,3.1,1.4,3.1,3.1V56.1z"/>
<path d="M55.8,25.9c2.1-1.7,3.5-4.3,3.5-7.2c0-0.199,0-0.361,0-0.53c-0.069-0.054-0.13-0.117-0.2-0.17c0,0.2,0,0.5,0,0.8
	c0.1,2.8-1.3,5.4-3.4,7.1c2.7,1.4,4.9,3.8,6,6.7c0.006-0.055,0.022-0.106,0.03-0.16C60.611,29.613,58.449,27.274,55.8,25.9z"/>
<path d="M44.232,25.839c0.023-0.012,0.044-0.027,0.068-0.039c-2.1-1.7-3.5-4.3-3.5-7.2c0,0.034,0,0.066,0,0.1
	C40.8,21.567,42.172,24.138,44.232,25.839z"/>
<path d="M40.8,17.9c0-0.035,0-0.062,0-0.1c-3.3,2.6-5.5,6.5-5.8,10.9c0.04,0.013,0.076,0.032,0.115,0.046
	C35.359,24.312,37.538,20.47,40.8,17.9z"/>
<path d="M40.2,59.4c-0.169-0.253-0.298-0.526-0.443-0.791C39.897,58.878,40.043,59.143,40.2,59.4z"/>
<path d="M61.6,53.2c0,2.9-1.1,5.5-2.9,7.6C60.5,58.8,61.6,56.1,61.6,53.2z"/>
<path d="M38.492,54.584C38.442,54.13,38.4,53.672,38.4,53.2C38.4,53.671,38.436,54.131,38.492,54.584z"/>
<path d="M38.7,55.776c-0.019-0.087-0.038-0.175-0.055-0.263C38.663,55.601,38.68,55.689,38.7,55.776z"/>
</svg>
