<?xml version="1.0" encoding="utf-8"?>
<!-- Generator: Adobe Illustrator 23.0.4, SVG Export Plug-In . SVG Version: 6.00 Build 0)  -->
<svg version="1.1" id="Ebene_1" xmlns="http://www.w3.org/2000/svg" xmlns:xlink="http://www.w3.org/1999/xlink" x="0px" y="0px"
	 viewBox="0 0 100 100" style="enable-background:new 0 0 100 100;" xml:space="preserve">
<path d="M54.8,45.3v-0.1V32.3h-9.7v12.9v0.1L43.9,44l-4.4,4.4l3,3l4.4-4.4l-1.4-1.4h9l-1.3,1.3l4.4,4.4l2.951-3.049L56.2,43.9
	L54.8,45.3z M42.473,49.93l-0.001-0.001L42.4,50l-1.6-1.6l3-3l0.046,0.046l0.041-0.041l1.556,1.556L42.473,49.93z M53.8,44.6h-7.7
	V33.3h7.7V44.6z M57.6,49.9l-3-3l0.036-0.036l-0.003-0.003l1.556-1.556l0.003,0.003L56.2,45.3l3,3L57.6,49.9z"/>
<polygon points="60.6,48.3 60.551,48.251 57.6,51.3 "/>
<polygon points="43.846,45.446 45.4,47 42.472,49.928 42.473,49.93 45.443,46.96 43.887,45.404 "/>
<rect x="54.313" y="46.082" transform="matrix(0.7071 -0.7071 0.7071 0.7071 -16.3566 52.6804)" width="2.2" height="0.004"/>
<path d="M96,32.9V22.5H82v-1.3h-1v1.3v10.4v10.9c-0.2,0-0.4-0.1-0.6-0.1c-6,0-10.9-4.9-10.9-10.9c0-2.1-1.6-3.8-3.6-4
	c-0.3-5.1-3-9.5-7-12.2c-1-4-4.6-7-8.9-7s-8,3-8.9,7c-4,2.7-6.7,7.2-7,12.3c-2.2,0.1-3.9,1.9-3.9,4.1v23.2c0,2,1.5,3.7,3.5,4
	c0.2,0,0.4,0.1,0.6,0.1s0.4,0,0.6-0.1c0.9-0.1,1.8-0.6,2.4-1.2c0.4-0.4,0.7-1,0.9-1.5c0.5,1.5,1.3,2.8,2.3,4c-1.6,1.1-2.6,3-2.6,5.1
	v17.8c0,2,0.9,3.7,2.3,4.9v1.4h8V89c0.8-0.7,1.5-1.6,1.9-2.7c0.4,1.1,1.1,2,1.9,2.7v1.4h8V89c1.4-1.2,2.3-3,2.3-4.9V66.4
	c0-2.1-1-4-2.6-5.1c1.9-2.2,3-5,3-8.1v-2.8c1.3-1.7,2.3-3.6,2.9-5.8c3.5,4.4,8.9,7.2,14.9,7.2c2.3,0,4.1-1.8,4.1-4.1
	c0-1.7-1-3.1-2.5-3.8v-11H96z M59.1,18.7c0-0.3,0-0.6,0-0.8c0.035,0.026,0.065,0.058,0.1,0.085c0-0.03,0-0.053,0-0.085
	c0.702,0.57,1.345,1.213,1.942,1.899c2.143,2.39,3.526,5.491,3.758,8.901c-1.7,0.2-3.1,1.5-3.5,3.1c-1.2-2.5-3.2-4.6-5.7-5.9
	C57.8,24.2,59.2,21.6,59.1,18.7z M61.6,37.1v13c-2.8,3.4-6.9,5.5-11.6,5.5s-8.8-2.1-11.6-5.5v-13c0-4.7,2.8-8.8,6.8-10.6
	c1.4,0.9,3,1.4,4.8,1.4s3.4-0.5,4.8-1.4C58.8,28.3,61.6,32.4,61.6,37.1z M57.5,15.4c0.4,1,0.7,2.1,0.7,3.3S57.9,21,57.5,22V15.4z
	 M43.5,23.6v-9.9c1.5-1.9,3.9-3.2,6.5-3.2s5,1.3,6.5,3.2v9.9h0.1c-1.5,2-3.9,3.3-6.6,3.3s-5.1-1.3-6.6-3.3H43.5z M42.5,15.4V22
	c-0.4-1-0.7-2.1-0.7-3.3S42.1,16.4,42.5,15.4z M34.6,59.2c-0.1,0-0.3,0-0.4,0c-1.2,0-2.1-0.9-2.1-2.1c0-1.2,0.9-2.1,2.1-2.1
	s2.1,0.9,2.1,2.1C36.3,58.1,35.6,59,34.6,59.2z M37.3,56.1c0,0.2,0,0.4,0,0.6c-0.2-1.5-1.5-2.7-3.1-2.7c-1.5,0-2.8,1.1-3,2.6
	c0-0.2-0.1-0.3-0.1-0.5V32.9c0-1.7,1.4-3.1,3.1-3.1s3.1,1.4,3.1,3.1V56.1z M35.1,28.9c0.002-0.052,0.013-0.102,0.015-0.154
	C35.076,28.732,35.04,28.713,35,28.7c0.3-4.4,2.5-8.3,5.8-10.9c0,0.038,0,0.065,0,0.1c0,0.243,0,0.438,0,0.7c0,2.9,1.4,5.5,3.5,7.2
	c-0.023,0.012-0.045,0.027-0.068,0.039c0.023,0.019,0.044,0.042,0.068,0.061c-2.7,1.4-4.9,3.8-6,6.7C38.1,30.8,36.8,29.3,35.1,28.9z
	 M41.7,89.5h-0.6v-1.6h0.6V89.5z M41.3,86.9c0.4-1.2,1.5-2.1,2.8-2.1c1.3,0,2.4,0.9,2.8,2.1H41.3z M43,89.5h-0.3v-1.6H43V89.5z
	 M44.2,89.5H44v-1.6h0.2V89.5z M45.5,89.5h-0.3v-1.6h0.3V89.5z M47.1,89.5h-0.6v-1.6h0.6V89.5z M49.4,84.1c0,1.3-0.5,2.6-1.3,3.5
	c-0.1-2.1-1.9-3.8-4-3.8c-2.1,0-3.9,1.8-4,3.9c-0.8-0.9-1.3-2.1-1.3-3.5v-5.9h10.6V84.1z M49.4,77.3H38.8v-4h10.6V77.3z M49.4,72.3
	H38.8v-5.9c0-2.9,2.4-5.3,5.3-5.3c2.9,0,5.3,2.4,5.3,5.3V72.3z M53.5,89.5h-0.6v-1.6h0.6V89.5z M53.1,86.9c0.4-1.2,1.5-2.1,2.8-2.1
	c1.3,0,2.4,0.9,2.8,2.1H53.1z M54.8,89.5h-0.3v-1.6h0.3V89.5z M56,89.5h-0.2v-1.6H56V89.5z M57.3,89.5H57v-1.6h0.3V89.5z M58.9,89.5
	h-0.6v-1.6h0.6V89.5z M61.2,84.1c0,1.3-0.5,2.6-1.3,3.5c-0.1-2.1-1.9-3.8-4-3.8c-2.1,0-3.9,1.8-4,3.9c-0.8-0.9-1.3-2.1-1.3-3.5v-5.9
	h10.6V84.1z M61.2,77.3H50.6v-4h10.6V77.3z M61.2,66.4v5.9H50.6v-5.9c0-2.9,2.4-5.3,5.3-5.3C58.8,61.1,61.2,63.5,61.2,66.4z
	 M61.6,53.2c0,2.9-1.1,5.6-2.9,7.6c-0.8-0.4-1.8-0.7-2.8-0.7c-2.7,0-5,1.7-5.9,4.1c-0.9-2.4-3.2-4.1-5.9-4.1c-1,0-2,0.3-2.9,0.7
	c-1.8-2-2.8-4.7-2.8-7.6v-1.6c2.9,3.1,7,5,11.6,5c3.45,0,6.619-1.069,9.211-2.911c0.864-0.614,1.664-1.314,2.389-2.089v0l0,0V53.2z
	 M64.7,43.7c-0.4,1.8-1.1,3.5-2.1,5v-9v-0.1c0.6,1.4,1.3,2.8,2.1,4c-0.005,0.025-0.013,0.047-0.018,0.072
	C64.688,43.681,64.693,43.691,64.7,43.7z M80.4,50.9c-10,0-18.1-8.1-18.1-18.1c0-1.7,1.4-3.1,3.1-3.1c1.7,0,3.1,1.4,3.1,3.1
	c0,6.5,5.3,11.8,11.8,11.9c-1.2,0.4-2.1,1.6-2.1,2.9c0,1.7,1.4,3.1,3.1,3.1c0.1,0,0.2,0,0.2,0C81.1,50.8,80.8,50.9,80.4,50.9z
	 M83.4,47.6c0,1.2-0.9,2.1-2.1,2.1c-1.2,0-2.1-0.9-2.1-2.1c0-1.2,0.9-2.1,2.1-2.1S83.4,46.4,83.4,47.6z M82,31.9v-8.4h13v8.4H82z"/>
<path d="M45.2,26.5c-4,1.8-6.8,5.9-6.8,10.6C38.4,32.4,41.2,28.4,45.2,26.5z"/>
<path d="M55.7,25.9c2.5,1.3,4.5,3.4,5.7,5.9C60.2,29.2,58.2,27.1,55.7,25.9z"/>
<path d="M61.142,19.799c2.122,2.441,3.524,5.544,3.758,8.901C64.667,25.29,63.284,22.189,61.142,19.799z"/>
<path d="M61.4,31.8c0.4-1.6,1.8-2.9,3.5-3.1C63.2,28.9,61.8,30.1,61.4,31.8z"/>
<path d="M55.7,25.9c2.1-1.7,3.5-4.3,3.5-7.2c0-0.268,0-0.464,0-0.715c-0.035-0.027-0.065-0.058-0.1-0.085c0,0.2,0,0.5,0,0.8
	C59.2,21.6,57.8,24.2,55.7,25.9z"/>
<path d="M40.8,17.9c0-0.035,0-0.062,0-0.1c-3.3,2.6-5.5,6.5-5.8,10.9c0.04,0.013,0.076,0.032,0.115,0.046
	C35.359,24.312,37.538,20.47,40.8,17.9z"/>
<path d="M44.232,25.839c0.023-0.012,0.044-0.027,0.068-0.039c-2.1-1.7-3.5-4.3-3.5-7.2c0,0.034,0,0.066,0,0.1
	C40.8,21.567,42.172,24.138,44.232,25.839z"/>
<path d="M61.6,53.2c0,2.9-1.1,5.5-2.9,7.6C60.5,58.8,61.6,56.1,61.6,53.2l0-1.6l0,0C61.6,51.6,61.6,53.2,61.6,53.2z"/>
<path d="M62.6,39.6v0.1c0.496,1.39,1.191,2.681,2.082,3.972c0.005-0.025,0.013-0.047,0.018-0.072C63.9,42.4,63.2,41,62.6,39.6z"/>
</svg>
