<?xml version="1.0" encoding="utf-8"?>
<!-- Generator: Adobe Illustrator 23.0.4, SVG Export Plug-In . SVG Version: 6.00 Build 0)  -->
<svg version="1.1" id="Ebene_1" xmlns="http://www.w3.org/2000/svg" xmlns:xlink="http://www.w3.org/1999/xlink" x="0px" y="0px"
	 viewBox="0 0 100 100" style="enable-background:new 0 0 100 100;" xml:space="preserve">
<g>
	<path d="M60.2,68.4c-0.3-0.6-0.5-1.2-0.8-1.8L58.5,67c0.3,0.6,0.6,1.2,0.8,1.8L60.2,68.4z"/>
	<path d="M61.7,80l1,0.2c0.1-0.7,0.2-1.4,0.3-2.1h-1C61.9,78.8,61.8,79.4,61.7,80z"/>
	<path d="M43.2,63.4L42.3,63c-0.3,0.6-0.6,1.2-0.9,1.8l0.9,0.4C42.6,64.5,42.9,63.9,43.2,63.4z"/>
	<path d="M57.6,65.2l0.9-0.4c-0.3-0.6-0.6-1.2-0.9-1.8l-0.9,0.4C57.1,64,57.4,64.6,57.6,65.2z"/>
	<path d="M38.2,76.2c0.1-0.6,0.2-1.2,0.4-1.9l-1-0.3c-0.2,0.7-0.4,1.4-0.5,2L38.2,76.2z"/>
	<path d="M40.7,68.8c0.3-0.6,0.5-1.2,0.8-1.8l-0.9-0.4c-0.3,0.6-0.6,1.2-0.8,1.8L40.7,68.8z"/>
	<path d="M51.1,52.8c0.3,0.5,0.6,1.1,1,1.7L53,54c-0.4-0.6-0.7-1.2-1-1.7L51.1,52.8z"/>
	<path d="M53,56.3c0.3,0.6,0.6,1.1,1,1.8l0.9-0.5c-0.3-0.6-0.7-1.2-1-1.8L53,56.3z"/>
	<path d="M61.4,74.3c0.2,0.7,0.3,1.3,0.4,1.9l1-0.2c-0.1-0.6-0.3-1.3-0.5-2L61.4,74.3z"/>
	<path d="M54.9,59.8c0.3,0.6,0.6,1.2,0.9,1.8l0.9-0.5c-0.3-0.6-0.6-1.2-0.9-1.8L54.9,59.8z"/>
	<path d="M51,89.5l0.1,1c0.7-0.1,1.4-0.2,2-0.3l-0.2-1C52.2,89.3,51.6,89.4,51,89.5z"/>
	<path d="M47.9,54.6c0.4-0.6,0.7-1.2,1-1.7L48,52.4c-0.3,0.5-0.6,1.1-1,1.7L47.9,54.6z"/>
	<path d="M45.1,57.6L46,58c0.3-0.6,0.6-1.2,1-1.8l-0.9-0.5C45.8,56.4,45.5,57,45.1,57.6z"/>
	<path d="M43.3,61.1l0.9,0.5c0.3-0.6,0.6-1.2,0.9-1.8l-0.9-0.5C43.9,59.9,43.6,60.5,43.3,61.1z"/>
	<path d="M46.9,90.1c0.7,0.2,1.4,0.3,2,0.3l0.1-1c-0.6-0.1-1.3-0.2-1.9-0.3L46.9,90.1z"/>
	<path d="M60.3,83.6l0.9,0.5c0.4-0.6,0.7-1.2,0.9-1.9l-0.9-0.4C60.9,82.4,60.6,83,60.3,83.6z"/>
	<path d="M40.8,85.1L40,85.8c0.4,0.5,0.9,1,1.4,1.5l0.7-0.8C41.6,86.1,41.2,85.6,40.8,85.1z"/>
	<path d="M43.1,88.5c0.6,0.4,1.2,0.7,1.8,1l0.4-0.9c-0.6-0.2-1.2-0.5-1.7-0.9L43.1,88.5z"/>
	<path d="M54.7,88.6l0.4,0.9c0.6-0.3,1.3-0.6,1.8-1l-0.5-0.8C55.8,88,55.2,88.3,54.7,88.6z"/>
	<path d="M57.9,86.5l0.7,0.8c0.5-0.5,1-1,1.4-1.5l-0.8-0.6C58.8,85.6,58.4,86.1,57.9,86.5z"/>
	<path d="M61.7,72.1c-0.2-0.6-0.5-1.2-0.7-1.9l-0.9,0.4c0.3,0.6,0.5,1.3,0.7,1.9L61.7,72.1z"/>
	<path d="M37.9,82.2c0.2,0.6,0.5,1.3,0.9,1.9l0.9-0.5c-0.3-0.6-0.6-1.1-0.8-1.7L37.9,82.2z"/>
	<path d="M38.3,72.1l0.9,0.3c0.2-0.6,0.4-1.2,0.7-1.9L39,70.2C38.7,70.9,38.5,71.5,38.3,72.1z"/>
	<path d="M38.1,78.1h-1c0,0.7,0.1,1.4,0.3,2.1l1-0.2C38.2,79.4,38.1,78.7,38.1,78.1z"/>
	<path d="M40.6,21.4c0,5.2,4.2,9.4,9.4,9.4s9.4-4.2,9.4-9.4S55.2,12,50,12C44.8,12.1,40.6,16.3,40.6,21.4z M50,13.1
		c4.6,0,8.4,3.8,8.4,8.4s-3.8,8.4-8.4,8.4s-8.4-3.8-8.4-8.4S45.4,13.1,50,13.1z"/>
	<polygon points="50.1,48.9 50,49 49.9,48.9 49.1,49.4 49.4,50 49.1,50.6 49.9,51.1 50,51 50.1,51.1 50.9,50.6 50.6,50 50.9,49.4 	
		"/>
	<path d="M61.7,27.9l-0.9-0.3c-0.2,0.6-0.4,1.2-0.7,1.9l0.9,0.4C61.3,29.1,61.5,28.5,61.7,27.9z"/>
	<path d="M55.9,38.4c-0.3,0.6-0.6,1.2-0.9,1.8l0.9,0.5c0.3-0.6,0.6-1.2,0.9-1.8L55.9,38.4z"/>
	<path d="M59.3,31.2c-0.3,0.6-0.5,1.2-0.8,1.8l0.9,0.4c0.3-0.6,0.6-1.2,0.8-1.8L59.3,31.2z"/>
	<path d="M61.9,21.9h1c0-0.7-0.1-1.4-0.3-2.1l-1,0.2C61.8,20.6,61.9,21.2,61.9,21.9z"/>
	<path d="M62.1,17.8c-0.2-0.6-0.6-1.3-0.9-1.9l-0.9,0.5c0.3,0.6,0.6,1.1,0.8,1.7L62.1,17.8z"/>
	<path d="M59.2,14.9l0.8-0.6c-0.4-0.5-0.9-1-1.4-1.5l-0.7,0.8C58.4,13.9,58.8,14.4,59.2,14.9z"/>
	<path d="M53.1,9.9c-0.7-0.2-1.4-0.3-2-0.3l-0.1,1c0.6,0,1.3,0.2,1.9,0.3L53.1,9.9z"/>
	<path d="M61.8,23.8c-0.1,0.6-0.2,1.2-0.4,1.9l1,0.3c0.2-0.7,0.4-1.4,0.5-2L61.8,23.8z"/>
	<path d="M58.5,35.3l-0.9-0.4c-0.3,0.6-0.6,1.2-0.9,1.8l0.9,0.4C58,36.5,58.3,35.9,58.5,35.3z"/>
	<path d="M56.9,11.5c-0.6-0.4-1.2-0.7-1.8-1l-0.4,0.9c0.6,0.2,1.2,0.5,1.7,0.9L56.9,11.5z"/>
	<path d="M42.4,34.9l-0.9,0.4c0.3,0.6,0.6,1.2,0.9,1.8l0.9-0.4C42.9,36.1,42.6,35.5,42.4,34.9z"/>
	<path d="M38.3,27.9c0.2,0.6,0.5,1.2,0.7,1.9l0.9-0.4c-0.3-0.6-0.5-1.3-0.7-1.9L38.3,27.9z"/>
	<path d="M54,41.9c-0.3,0.6-0.6,1.2-1,1.8l0.9,0.5c0.3-0.6,0.6-1.2,1-1.8L54,41.9z"/>
	<path d="M42.1,13.5l-0.7-0.8c-0.5,0.5-1,1-1.4,1.5l0.8,0.6C41.2,14.4,41.6,13.9,42.1,13.5z"/>
	<path d="M38.3,20l-1-0.2c-0.1,0.7-0.2,1.4-0.3,2.1h1C38.1,21.3,38.2,20.6,38.3,20z"/>
	<path d="M45.3,11.4l-0.4-0.9c-0.6,0.3-1.3,0.6-1.8,1l0.5,0.8C44.2,12,44.7,11.7,45.3,11.4z"/>
	<path d="M39.7,16.4l-0.9-0.5c-0.3,0.6-0.7,1.2-0.9,1.9l0.9,0.4C39.1,17.6,39.3,17,39.7,16.4z"/>
	<path d="M38.2,23.8l-1,0.2c0.1,0.6,0.3,1.3,0.5,2l1-0.3C38.4,25,38.3,24.3,38.2,23.8z"/>
	<path d="M46,42l-0.9,0.5c0.3,0.6,0.7,1.2,1,1.8l0.9-0.5C46.7,43.1,46.3,42.6,46,42z"/>
	<path d="M48.9,47.2c-0.3-0.5-0.6-1.1-1-1.7L47,46c0.4,0.6,0.7,1.2,1,1.7L48.9,47.2z"/>
	<path d="M52.1,45.4c-0.4,0.6-0.7,1.2-1,1.7l0.9,0.5c0.3-0.5,0.6-1.1,1-1.7L52.1,45.4z"/>
	<path d="M49,10.5l-0.1-1c-0.7,0.1-1.4,0.2-2,0.3l0.2,1C47.8,10.7,48.4,10.6,49,10.5z"/>
	<path d="M41.5,33.1c-0.3-0.6-0.6-1.2-0.8-1.8l-0.9,0.4c0.3,0.6,0.5,1.2,0.8,1.8L41.5,33.1z"/>
	<path d="M44.1,38.4l-0.9,0.5c0.3,0.6,0.6,1.2,0.9,1.8l0.9-0.5C44.8,39.6,44.4,39,44.1,38.4z"/>
	<path d="M59.4,78.6c0-3.9-2.4-7.2-5.7-8.6l-0.1-0.1l0,0c-1.1-0.5-2.3-0.7-3.6-0.7c-5.2,0-9.4,4.2-9.4,9.4c0,4.7,3.5,8.6,8,9.3
		l0.1,0.1v-0.1c0.4,0.1,0.8,0.1,1.2,0.1C55.2,87.9,59.4,83.7,59.4,78.6z M56.6,74.6h0.7c0.4,0.8,0.7,1.7,0.9,2.6h-0.7l-0.3,0.9
		l-0.3-0.3v-2.6L56.6,74.6z M55,71.9c0.2,0.2,0.4,0.3,0.6,0.5V73L55,72.4V71.9z M56.7,73.6L56.7,73.6L56.7,73.6L56.7,73.6z
		 M45.5,72.2l1.1,0.3L45.8,73l2.2,1.7l-1.1,1.7l-0.2,0.4l-1.5-0.5L44,77.8l-0.5-2.4l1.7-3L45,71.9c0.1-0.1,0.3-0.2,0.4-0.3
		L45.5,72.2z M47.4,73.1L47.4,73.1L47.4,73.1L47.4,73.1z M41.6,78.6c0-2.1,0.8-3.9,2-5.4l-1.2,2.1l0.7,3.5l2.1,1.4l0.7,1.1l0.7,0.2
		l-0.5,1l1.9,1.9v2.2C44.3,85.7,41.6,82.5,41.6,78.6z M47.8,81l0.9-0.2l1.8,0.4l0.7,1.1l1.3,0.4l-0.5,1l-2.8,1.8l-0.4,0.4V84
		l-1.6-1.6L48,81H47.8z M50,86.9c-0.2,0-0.4,0-0.6,0l0.5-0.6l2.9-1.9l1.3-2.2L52,81.5l-0.8-1.1l-2.4-0.6l-1,0.2l-0.9-0.1l-0.6-1.3
		l-0.9-0.5l-0.2-0.2l0.3-0.4l0.6,0.2l0.7,1.2l0.9-2l1-1.5H50v-1.6l-1.5-1.5l0.4-0.2L48,71.9l-0.1-0.1v0.1l-1.5-0.4v-0.4
		c1.1-0.5,2.3-0.9,3.6-0.9c1.1,0,2.1,0.2,3.1,0.6l0.9,0.9v1.1l1.4,1.3l0.4,1.1v2.9l1.1,1.1h0.9l0.4-1.1h0.1c0,0.1,0,0.3,0,0.4
		C58.4,83.2,54.6,86.9,50,86.9z M48.1,74.5l0.3-0.9l0.6,0.6v0.2L48.1,74.5L48.1,74.5z"/>
</g>
</svg>
