<?xml version="1.0" encoding="utf-8"?>
<!-- Generator: Adobe Illustrator 23.0.4, SVG Export Plug-In . SVG Version: 6.00 Build 0)  -->
<svg version="1.1" id="Ebene_1" xmlns="http://www.w3.org/2000/svg" xmlns:xlink="http://www.w3.org/1999/xlink" x="0px" y="0px"
	 viewBox="0 0 100 100" style="enable-background:new 0 0 100 100;" xml:space="preserve">
<g>
	<path d="M54.6,43l-2.1-3.2V20.6l-2-9.6l0.3-1.5h-1.6l0.3,1.5l-2,9.5v19.3L45.4,43H54.6z M47.2,42l1.2-1.8h3.1l1.2,1.8H47.2z
		 M48.5,26.4h3v12.8h-3V26.4z M51.5,25.4h-3v-2h3V25.4z M50,13.4l1.5,7.2v1.7h-3v-1.7L50,13.4z"/>
	<path d="M50,72.3c-16.8,0-32.9,6.2-45.4,17.3l0.7,0.7c12.3-11,28.2-17.1,44.8-17.1c16.5,0,32.4,6.1,44.8,17.1l0.7-0.7
		C82.9,78.5,66.8,72.3,50,72.3z"/>
	<path d="M38.4,59.1c2.4,0,4.5,0.9,6.2,2.5l-1.4,6l1,0.2l1.3-5.4c1.3,1.5,2,3.5,2,5.7h1c0-2.7-1-5.1-2.7-6.9l3.1-13l-1-0.2l-3,12.5
		c-1.7-1.5-4-2.3-6.4-2.3c-5.5,0-10,4.5-10,10h1C29.4,63.1,33.4,59.1,38.4,59.1z"/>
	<path d="M51.4,48l-1,0.2l3.1,13c-1.7,1.8-2.7,4.2-2.7,6.9h1c0-2.1,0.8-4.1,2-5.7l1.3,5.4l1-0.2l-1.4-6c1.6-1.5,3.8-2.5,6.2-2.5
		c5,0,9,4,9,9h1c0-5.5-4.5-10-10-10c-2.4,0-4.7,0.9-6.4,2.3L51.4,48z"/>
</g>
</svg>
