<?xml version="1.0" encoding="utf-8"?>
<!-- Generator: Adobe Illustrator 23.0.4, SVG Export Plug-In . SVG Version: 6.00 Build 0)  -->
<svg version="1.1" id="Ebene_1" xmlns="http://www.w3.org/2000/svg" xmlns:xlink="http://www.w3.org/1999/xlink" x="0px" y="0px"
	 viewBox="0 0 100 100" style="enable-background:new 0 0 100 100;" xml:space="preserve">
<g>
	<path d="M56.9,80.2l-1.7-4.8V39.3l-1.9-4.5l0,0v-7.7l-1.5-4.9v-3.7L51,16l-0.2-3l-0.3-3h-1l-0.3,3L49,16l-0.8,2.3v3.8L46.7,27v7.8
		l0,0l-1.9,4.4v36.2l-1.7,4.8h2.4l-0.4,1.6H48l-0.4-1.6H49l-0.4,1.6h2.9L51,80.2h1.4L52,81.8h2.9l-0.4-1.6H56.9z M54.2,53.6h-8.4
		v-2.5h8.4C54.2,51.1,54.2,53.6,54.2,53.6z M54.2,50.1h-8.4V39.8h8.4C54.2,39.8,54.2,50.1,54.2,50.1z M46.1,38.8l1.7-3.8h4.5
		l1.7,3.8H46.1z M49.2,21.4v-2.8l0.7-2h0.3l0.7,2v2.8H49.2z M49.2,22.4h1.7l1.5,4.8V34h-4.6v-6.8L49.2,22.4z M46.7,80.8h-0.3
		l0.1-0.6L46.7,80.8z M50.2,80.8h-0.3l0.1-0.6L50.2,80.8z M50.8,79.2h-1.6h-1.9h-1.6h-1.2l1.3-3.6v-21h8.4v20.9l1.3,3.7h-1.2h-1.6
		H50.8z M53.7,80.8h-0.3l0.1-0.6L53.7,80.8z"/>
	<rect x="46" y="82.3" width="1" height="7.7"/>
	<rect x="49.5" y="82.3" width="1" height="7.7"/>
	<rect x="53" y="82.3" width="1" height="7.7"/>
</g>
</svg>
