<?xml version="1.0" encoding="utf-8"?>
<!-- Generator: Adobe Illustrator 23.0.4, SVG Export Plug-In . SVG Version: 6.00 Build 0)  -->
<svg version="1.1" id="Ebene_1" xmlns="http://www.w3.org/2000/svg" xmlns:xlink="http://www.w3.org/1999/xlink" x="0px" y="0px"
	 viewBox="0 0 100 100" style="enable-background:new 0 0 100 100;" xml:space="preserve">
<path d="M68.1,10v17.1h-7.3V19c1.6-1.2,2.7-3.1,2.7-5.2V10H63h-0.5v3.7c0,3-2.4,5.4-5.4,5.4h-1c-3,0-5.4-2.4-5.4-5.4V10h-0.2h-0.3
	H50h-0.3h-0.2v12.6H37.7V10h-0.5h-0.5v17.1h-4.9V10h-1v80h1V72.9H68V90h1V10H68.1z M53.3,19.4c0.9,0.4,1.9,0.7,2.9,0.7h1
	c1,0,1.9-0.2,2.7-0.6v4.7h-6.6V19.4z M59.9,25.2v1.9h-0.7v-1.9H59.9z M58.2,25.2v1.9h-0.4v-1.9H58.2z M56.8,25.2v1.9h-0.4v-1.9H56.8
	z M55.4,25.2v1.9H55v-1.9H55.4z M53.3,25.2H54v1.9h-0.7V25.2z M50.5,16.8c0.032,0.051,0.067,0.098,0.1,0.148V16.8
	c0.4,0.8,1,1.4,1.7,2v8.3h-0.1h-1.6h-0.1V16.8z M50.5,36.1v-8h1.7h8.6h7.3v21.4H47.8v-8.2C49.4,40.1,50.5,38.2,50.5,36.1z
	 M37.7,23.6h11.8v4.5H37.7V23.6z M37.7,29.1h11.8v7c0,3-2.4,5.4-5.4,5.4h-1c-3,0-5.4-2.4-5.4-5.4V29.1z M40.2,46.6v-4.8
	c0.9,0.4,1.9,0.7,2.9,0.7h1c1,0,1.9-0.2,2.7-0.6v4.7H40.2z M46.8,47.6v1.9h-0.7v-1.9H46.8z M45.1,47.6v1.9h-0.4v-1.9H45.1z
	 M43.7,47.6v1.9h-0.4v-1.9H43.7z M42.3,47.6v1.9h-0.4v-1.9H42.3z M40.9,47.6v1.9h-0.7v-1.9H40.9z M31.8,28.1h4.9v8
	c0,2.1,1,3.9,2.5,5.1v8.3h-7.4V28.1z M68.2,71.9h-0.1H31.9V50.5h7.3h0.1h8.5h0.1h20.2h0.1V71.9z"/>
<path d="M50.6,16.948c-0.033-0.05-0.068-0.097-0.1-0.148v10.3h0.1V16.948z"/>
</svg>
