<?xml version="1.0" encoding="utf-8"?>
<!-- Generator: Adobe Illustrator 23.0.4, SVG Export Plug-In . SVG Version: 6.00 Build 0)  -->
<svg version="1.1" id="Ebene_1" xmlns="http://www.w3.org/2000/svg" xmlns:xlink="http://www.w3.org/1999/xlink" x="0px" y="0px"
	 viewBox="0 0 100 100" style="enable-background:new 0 0 100 100;" xml:space="preserve">
<path d="M54.9,54.3V42.2l-2.6-8.4l0,0v-5.3l-1.1-4.3l0,0l-0.3-4.4L50.5,15h-1l-0.4,4.8l-0.3,4.4l0,0l-1.1,4.2v5.4l0,0l-2.6,8.3v12.2
	L42,61.4v24.1h16V61.6L54.9,54.3z M57,62.1v16.8H43V62.1H57z M43.3,61.1l2.9-6.7h7.7l2.9,6.7H43.3z M50,21.4l0.2,2.8h-0.3L50,21.4z
	 M49.6,25.2h0.8l0.9,3.4v4.8h-2.6v-4.8L49.6,25.2z M48.6,34.4h2.9l2.5,7.9v11.1h-7.8V42.3L48.6,34.4z M43,84.5v-4.6h14v4.6H43z"/>
</svg>
