<?xml version="1.0" encoding="utf-8"?>
<!-- Generator: Adobe Illustrator 23.0.4, SVG Export Plug-In . SVG Version: 6.00 Build 0)  -->
<svg version="1.1" id="Ebene_1" xmlns="http://www.w3.org/2000/svg" xmlns:xlink="http://www.w3.org/1999/xlink" x="0px" y="0px"
	 viewBox="0 0 100 100" style="enable-background:new 0 0 100 100;" xml:space="preserve">
<path d="M75.456,62.516c-0.071-7.99-6.718-14.496-14.637-14.496h-8.627l0.071-21.142H24.544l0,46.245h50.912L75.456,62.516z
	 M74.466,62.516v9.758h-2.97v-8.061c0-6.505-5.091-11.879-11.526-12.374v-2.687h0.849C68.243,49.081,74.395,55.091,74.466,62.516z
	 M32.11,66.122v6.081h-2.828l0-6.081H32.11z M33.1,66.122h2.97l0,6.081H33.1L33.1,66.122z M36.919,66.122h2.828l0,6.081h-2.828
	L36.919,66.122z M40.737,66.122h2.97v6.081h-2.97V66.122z M44.697,66.122h2.97v6.081h-2.97V66.122z M48.515,66.122h2.828v6.081
	h-2.828V66.122z M52.333,66.122h2.97l0,6.081h-2.97L52.333,66.122z M56.293,66.122h2.828l0,6.081h-2.828L56.293,66.122z
	 M60.112,61.597c1.768,1.344,2.828,3.394,2.828,5.657v4.95h-2.828V61.597z M63.859,67.183c0-2.828-1.414-5.374-3.818-6.788v-3.536
	c3.818,1.131,6.576,4.738,6.576,8.839v6.505h-2.828L63.859,67.183z M67.607,65.698c0-4.667-3.182-8.697-7.566-9.829l0-3.111
	c5.869,0.495,10.465,5.374,10.536,11.384l0,8.061h-2.97V65.698z M51.273,44.131h-7.92c-0.636-0.071-1.273-0.283-1.768-0.778
	c-0.495-0.495-0.707-1.131-0.778-1.768c0-0.707,0.283-1.273,0.707-1.697c0.495-0.495,1.131-0.707,1.768-0.778h7.92L51.273,44.131z
	 M51.202,27.938v10.182l-7.849-0.071c-0.99,0-1.838,0.424-2.475,1.061c-0.636,0.636-0.99,1.556-0.99,2.404
	c0,0.99,0.354,1.768,1.061,2.475l0,0c0.636,0.636,1.556,0.99,2.404,0.99h7.92v3.96h7.778v16.122l-33.446,0.071l-0.071-37.265
	L51.202,27.938z M25.605,66.122h2.687l0,6.081h-2.687L25.605,66.122z"/>
</svg>
