<?xml version="1.0" encoding="utf-8"?>
<!-- Generator: Adobe Illustrator 23.0.4, SVG Export Plug-In . SVG Version: 6.00 Build 0)  -->
<svg version="1.1" id="Ebene_1" xmlns="http://www.w3.org/2000/svg" xmlns:xlink="http://www.w3.org/1999/xlink" x="0px" y="0px"
	 viewBox="0 0 100 100" style="enable-background:new 0 0 100 100;" xml:space="preserve">
<g>
	<path d="M56.7,44.4L53,32.8l0,0v-7.5l-1.6-5.8h-2.8L47,25.2v7.6l0,0l-3.7,11.4V61l4.7,2.5l-3,8.2h10l-3-8.2l4.7-2.5V44.4z
		 M49.4,20.5h1.2l1.4,4.9v7h-4v-7L49.4,20.5z M47.9,33.4h4.3l3.6,11.1v15.6H44.3V44.5L47.9,33.4z M48.6,62.7l-3-1.6h8.8l-3,1.6H48.6
		z M46.4,70.7l2.5-7H51l2.5,7H46.4z"/>
	<rect x="49.5" y="73.8" width="1" height="6.2"/>
</g>
</svg>
