<?xml version="1.0" encoding="utf-8"?>
<!-- Generator: Adobe Illustrator 23.0.4, SVG Export Plug-In . SVG Version: 6.00 Build 0)  -->
<svg version="1.1" id="Ebene_1" xmlns="http://www.w3.org/2000/svg" xmlns:xlink="http://www.w3.org/1999/xlink" x="0px" y="0px"
	 viewBox="0 0 100 100" style="enable-background:new 0 0 100 100;" xml:space="preserve">
<g>
	<path d="M50,18.5c-1.1,0-2,0.9-2,2s0.9,2,2,2s2-0.9,2-2S51.1,18.5,50,18.5z M50,21.5c-0.6,0-1-0.4-1-1s0.4-1,1-1s1,0.4,1,1
		S50.6,21.5,50,21.5z"/>
	<path d="M33,12.9c1.1,0,2-0.9,2-2s-0.9-2-2-2s-2,0.9-2,2S31.9,12.9,33,12.9z M33,9.9c0.6,0,1,0.4,1,1s-0.4,1-1,1s-1-0.4-1-1
		S32.4,9.9,33,9.9z"/>
	<path d="M67,12.9c1.1,0,2-0.9,2-2s-0.9-2-2-2s-2,0.9-2,2S65.9,12.9,67,12.9z M67,9.9c0.6,0,1,0.4,1,1s-0.4,1-1,1s-1-0.4-1-1
		S66.4,9.9,67,9.9z"/>
	<path d="M83.4,86.4l-5.3-38.6L72,45.1V45H60.9l11.3-6.5V17L59.1,9.5H40.9L27.8,17v21.5L39.1,45H28v0.1l-6.1,2.7l-5.3,38.6h-1.8v1
		h4.4v-1h-1.6L20,69.3l8.3-0.1h17.2l-3.4,8h7.5v9.2h-1.7v1h4.4v-1h-1.7v-9.2H58l-3.4-8h17.2l8.3,0.1l2.4,17.1h-1.6v1h4.4v-1H83.4z
		 M43.6,76.2l3-6.9h6.9l3,6.9H43.6z M77,48.4l-5,17.5V46.2L77,48.4z M71.2,17.6v20.3L58.9,45h-1.2l-1.5-15.5h12.3v-1H56.1l-1.7-18
		h4.5L71.2,17.6z M45.1,26.4h9.7l1,10H44.2L45.1,26.4z M45.2,25.4l1.4-14.9h6.7l1.4,14.9H45.2z M44.1,37.4h11.8l0.7,7.6H43.4
		L44.1,37.4z M28.8,37.9V17.6l12.3-7.1h4.5l-1.7,18H31.5v1h12.3L42.4,45h-1.2L28.8,37.9z M28,65.8l-5-17.5l5-2.2V65.8z M20.1,68.3
		l2.5-17.8l5.1,17.7L20.1,68.3z M71,68.2H29V46h11.9h18.3H71V68.2z M72.4,68.2l5.1-17.7L80,68.3L72.4,68.2z"/>
</g>
</svg>
