<?xml version="1.0" encoding="utf-8"?>
<!-- Generator: Adobe Illustrator 23.0.4, SVG Export Plug-In . SVG Version: 6.00 Build 0)  -->
<svg version="1.1" id="Ebene_1" xmlns="http://www.w3.org/2000/svg" xmlns:xlink="http://www.w3.org/1999/xlink" x="0px" y="0px"
	 viewBox="0 0 100 100" style="enable-background:new 0 0 100 100;" xml:space="preserve">
<g>
	<path d="M60.1,50l4.9-1.6l-5.2-0.5l4.5-2.6l-5.2,0.6l3.9-3.5L58.1,44l3.1-4.2l-4.5,2.6l2.1-4.7L55,41.3l1.1-5.1l-3,4.2v-5.2l-2,4.8
		L50,34.9L48.9,40l-2.1-4.8v5.2l-3-4.2l1.1,5.1l-3.8-3.5l2.1,4.7l-4.5-2.6l3.1,4.2l-4.9-1.6l3.9,3.5l-5.2-0.6l4.5,2.6L35,48.4
		l4.9,1.6L35,51.6l5.2,0.5l-4.5,2.6l5.2-0.6L37,57.6l4.9-1.6l-3.1,4.2l4.5-2.6l-2.1,4.7l3.8-3.5l-1.1,5.1l3-4.2v5.2l2.1-4.8l1.1,5.1
		l1.1-5.1l2.1,4.8v-5.2l3,4.2L55,58.7l3.8,3.5l-2.1-4.7l4.5,2.6l-3.1-4.2l4.9,1.6L59.1,54l5.2,0.6L59.8,52l5.2-0.5L60.1,50z
		 M59.6,53.1l-3.5-0.4l2.6,2.3l-3.2-1l2.1,2.8l-3-1.8l1.4,3.2l-2.6-2.3l0.7,3.4l-2-2.8V60l-1.4-3.2L50,60.1l-0.7-3.4l-1.4,3.2v-3.5
		l-2,2.8l0.7-3.4L44,58.2l1.4-3.2l-3,1.8l2.1-2.8l-3.3,1.1l2.6-2.3l-3.5,0.4l3-1.7l-3.5-0.3l3.3-1.1L39.8,49l3.5-0.3l-3-1.7l3.5,0.4
		l-2.6-2.3l3.3,1.1l-2.1-2.8l3,1.8L44,41.8l2.6,2.3l-0.7-3.4l2,2.8V40l1.4,3.2l0.7-3.4l0.7,3.4l1.4-3.2v3.5l2-2.8l-0.7,3.4l2.6-2.3
		L54.5,45l3-1.8l-2,2.8l3.3-1.1l-2.6,2.3l3.5-0.4l-3,1.7l3.5,0.3L56.8,50l3.3,1.1l-3.5,0.3L59.6,53.1z"/>
	<path d="M66.4,50l8-2.6L66,46.6l7.3-4.2l-8.4,0.9l6.3-5.6l-8,2.7l5-6.8l-7.3,4.3l3.5-7.7l-6.2,5.7l1.8-8.3l-4.9,6.9v-8.4l-3.4,7.7
		L50,25.5l-1.7,8.3L44.9,26v8.4L40,27.6l1.8,8.3l-6.2-5.7l3.5,7.7l-7.3-4.3l5,6.8l-8-2.7l6.3,5.6l-8.4-0.9l7.3,4.2l-8.4,0.8l8,2.6
		l-8,2.6l8.4,0.8l-7.3,4.2l8.4-0.9l-6.3,5.6l8-2.7l-5,6.8l7.3-4.3l-3.5,7.7l6.2-5.7L40,72.4l4.9-6.9v8.4l3.4-7.7l1.7,8.3l1.7-8.3
		l3.4,7.7v-8.4l4.9,6.9l-1.8-8.3l6.2,5.7l-3.5-7.7l7.3,4.3l-5-6.8l8,2.7l-6.3-5.6l8.4,0.9L66,53.4l8.4-0.8L66.4,50z M68.6,56.1
		l-6.7-0.7l5,4.5l-6.4-2.1l4,5.4l-5.8-3.4l2.8,6.1l-5-4.5l1.4,6.6L54,62.4v6.7L51.4,63L50,69.6L48.6,63l-2.7,6.2v-6.7L42,67.9
		l1.4-6.6l-5,4.5l2.8-6.1l-5.8,3.4l4-5.4L33,59.8l5-4.5L31.3,56l5.9-3.3L30.5,52l6.4-2l-6.4-2l6.7-0.7L31.3,44l6.7,0.7l-5-4.5
		l6.4,2.1l-4-5.4l5.8,3.4l-2.8-6.1l5,4.5L42,32.1l3.9,5.5v-6.7l2.7,6.2l1.4-6.6l1.4,6.6l2.7-6.2v6.7l3.9-5.5l-1.4,6.6l5-4.5
		l-2.8,6.1l5.8-3.4l-4,5.4l6.4-2.1l-5,4.5l6.7-0.7l-5.9,3.3l6.7,0.7l-6.4,2l6.4,2l-6.7,0.7L68.6,56.1z"/>
	<path d="M72.8,50L84,46.4l-11.7-1.2l10.2-5.8l-11.7,1.3l8.8-7.8l-11.2,3.7l7-9.5L65.3,33l4.9-10.7l-8.7,7.9L64,18.7l-6.9,9.6
		l0.1-11.8l-4.7,10.8L50,15.8l-2.4,11.5l-4.7-10.8L43,28.3l-6.9-9.6l2.5,11.5l-8.7-7.9L34.7,33l-10.2-5.9l7,9.5l-11.2-3.7l8.8,7.8
		l-11.7-1.3l10.2,5.8l-11.7,1.2L27.2,50L16,53.6l11.7,1.2l-10.2,5.8l11.7-1.3l-8.8,7.8l11.2-3.7l-7,9.5L34.7,67l-4.9,10.7l8.7-7.9
		L36,81.3l6.9-9.6l-0.1,11.8l4.7-10.8L50,84.2l2.4-11.5l4.7,10.8L57,71.7l6.9,9.6l-2.5-11.5l8.7,7.9L65.3,67l10.2,5.9l-7-9.5
		l11.2,3.7l-8.8-7.8l11.7,1.3l-10.2-5.8l11.7-1.2L72.8,50z M77.9,59.1l-10-1.1l7.5,6.7l-9.6-3.2l6,8.1l-8.7-5.1l4.2,9.2l-7.5-6.8
		l2.2,9.9l-6-8.2l0.1,10.1L52,69.4l-2,9.9l-2-9.9l-4.1,9.2l0.1-10l-5.9,8.2l2.2-9.9l-7.5,6.8l4.2-9.2l-8.7,5.1l6-8.1l-9.6,3.2
		l7.5-6.7l-10,1.1l8.8-5l-10-1l9.6-3.1L21,46.9l10-1l-8.8-5l10,1.1l-7.5-6.7l9.6,3.2l-6-8.1l8.7,5.1l-4.2-9.2l7.5,6.8l-2.2-9.9
		l5.9,8.2l-0.1-10.1l4.1,9.2l2-9.9l2,9.9l4.1-9.2L56,31.4l5.9-8.2l-2.2,9.9l7.5-6.8L63,35.5l8.7-5.1l-6,8.1l9.6-3.2L67.8,42l10-1.1
		l-8.8,5l10,1L69.5,50l9.6,3.1l-10,1L77.9,59.1z"/>
	<path d="M81.8,50l15.6-5l-16.3-1.6l14.3-8.1l-16.3,1.8l12.3-10.9l-15.6,5.2l9.7-13.2l-14.2,8.3l6.8-15l-12.2,11l3.5-16l-9.6,13.3
		l0.1-16.4l-6.6,15L50,2.3l-3.3,16.1l-6.6-15l0.1,16.4L30.6,6.4l3.5,16L22,11.4l6.8,15l-14.2-8.3l9.7,13.2L8.7,26.1L21,37L4.6,35.3
		l14.3,8.1L2.5,45l15.6,5L2.5,55l16.3,1.6L4.6,64.7l16.3-1.8l-12.2,11l15.6-5.2l-9.7,13.2l14.2-8.3l-6.8,15l12.1-11.1l-3.5,16
		l9.6-13.3l-0.1,16.4l6.6-15L50,97.7l3.3-16.1l6.6,15l-0.1-16.4l9.6,13.3l-3.5-16L78,88.6l-6.8-15l14.2,8.3l-9.7-13.2l15.6,5.2
		l-12.2-11l16.3,1.8l-14.3-8.1L97.5,55L81.8,50z M90.7,63.2l-14.6-1.6l11,9.8l-14-4.6l8.7,11.9l-12.7-7.4l6.1,13.4l-10.9-9.9
		l3.1,14.4l-8.6-12l0.1,14.7L53,78.4l-3,14.4l-3-14.4l-5.9,13.5l0.1-14.7l-8.6,12l3.1-14.4l-10.9,9.9l6.1-13.4l-12.7,7.4l8.7-11.9
		l-14,4.6l11-9.8L9.3,63.2l12.8-7.3L7.5,54.5l14-4.5l-14-4.5L22.1,44L9.3,36.8l14.6,1.6l-11-9.8l14,4.6l-8.7-11.9l12.7,7.4
		l-6.1-13.4l10.9,9.9l-3.1-14.4l8.6,12L41.1,8.2L47,21.6l3-14.4l3,14.4l5.9-13.5l-0.1,14.7l8.6-12l-3.1,14.4l10.9-9.9l-6.1,13.4
		l12.7-7.4l-8.7,11.9l14-4.6l-11,9.8l14.6-1.6l-12.8,7.3l14.6,1.5l-14,4.5l14,4.5l-14.6,1.5L90.7,63.2z"/>
</g>
</svg>
