<?xml version="1.0" encoding="utf-8"?>
<!-- Generator: Adobe Illustrator 23.0.4, SVG Export Plug-In . SVG Version: 6.00 Build 0)  -->
<svg version="1.1" id="Ebene_1" xmlns="http://www.w3.org/2000/svg" xmlns:xlink="http://www.w3.org/1999/xlink" x="0px" y="0px"
	 viewBox="0 0 100 100" style="enable-background:new 0 0 100 100;" xml:space="preserve">
<g>
	<path d="M78.8,19.6H51.5c-7.4,0-11.8,3.4-11.8,9.2c0,6.3,2,10.2,11.8,10.2c8.7,0,11.9,1.1,15.1,2.2c2.9,1,5.6,2,12.2,2
		c5.8,0,11.8-1.4,11.8-11.8C90.6,24.9,85.3,19.6,78.8,19.6z M46.3,37.5c-4.5-1.2-5.6-4.2-5.6-8.7c0-4.4,2.7-6.5,5.6-7.4V37.5z
		 M53.4,38c-0.6,0-1.2,0-1.9,0c-1.6,0-3-0.1-4.2-0.3V21.1c1.6-0.4,3.1-0.5,4.2-0.5h1.9V38z M60.5,38.6c-1.6-0.3-3.6-0.5-6.1-0.5
		V20.6h6.1V38.6z M67.6,40.5c-0.2-0.1-0.5-0.2-0.7-0.2c-1.6-0.5-3.2-1.1-5.4-1.5V20.6h6.1V40.5z M74.7,42c-2.7-0.2-4.5-0.7-6.1-1.2
		V20.6h6.1V42z M81.8,42c-0.9,0.1-1.9,0.2-3,0.2s-2.2,0-3.1-0.1V20.6h3.1c1,0,2,0.2,3,0.4V42z M82.8,41.8V21.4c4,1.6,6.8,5.5,6.8,10
		C89.6,36.8,88.3,40.6,82.8,41.8z"/>
	<path d="M48.6,56.8c-6.6,0-9.3,1-12.2,2C33.2,59.9,30,61,21.3,61c-9.8,0-11.8,4.1-11.8,10.2c0,5.8,4.4,9.2,11.8,9.2h27.3
		c6.5,0,11.8-5.3,11.8-11.8C60.4,62.8,59,56.8,48.6,56.8z M16.1,78.6c-2.9-0.9-5.6-3-5.6-7.4c0-4.5,1.1-7.5,5.6-8.7V78.6z
		 M23.2,79.4h-1.9c-1.1,0-2.6-0.1-4.2-0.5V62.3c1.2-0.2,2.6-0.3,4.2-0.3c0.7,0,1.3,0,1.9,0C23.2,62,23.2,79.4,23.2,79.4z M30.3,79.4
		h-6.1V62c2.5-0.1,4.5-0.3,6.1-0.5V79.4z M37.4,79.4h-6.1V61.2c2.2-0.4,3.8-1,5.4-1.5c0.2-0.1,0.5-0.2,0.7-0.2V79.4z M44.5,79.4
		h-6.1V59.1c1.6-0.5,3.4-1,6.1-1.2V79.4z M51.6,79c-1,0.3-2,0.4-3,0.4h-3.1V57.9c0.9-0.1,2-0.1,3.1-0.1s2.1,0.1,3,0.2V79z
		 M52.6,78.6V58.2c5.5,1.2,6.8,5.1,6.8,10.4C59.4,73.1,56.6,77,52.6,78.6z"/>
</g>
</svg>
