<?xml version="1.0" encoding="utf-8"?>
<!-- Generator: Adobe Illustrator 23.0.4, SVG Export Plug-In . SVG Version: 6.00 Build 0)  -->
<svg version="1.1" id="Ebene_1" xmlns="http://www.w3.org/2000/svg" xmlns:xlink="http://www.w3.org/1999/xlink" x="0px" y="0px"
	 viewBox="0 0 100 100" style="enable-background:new 0 0 100 100;" xml:space="preserve">
<g>
	<path d="M54.5,38.3v-4.5l-1.1-0.6h0.8v0.1l0.1-0.1h0.2v-0.1l1.1-0.5l1-7.6l-1-0.1l-0.4,3h-0.7h-1.2h-1.9l0.6-1.5h-4l0.6,1.5h-1.9
		h-1.2h-0.7l-0.4-3l-1,0.1l1,7.6l1.1,0.5v0.1h0.2l0.1,0.1v-0.1h0.8l-1.1,0.6v4.5l2.5,1.5l-4,8.3v12.7h4.3l-2.2,5.4H54l-2.2-5.4H56
		V48.1l-4-8.3L54.5,38.3z M55.1,28.9l-0.1,1l-0.3-1H55.1z M54.5,32L54.5,32L54.5,32L54.5,32z M49.4,27.4h1.1l-0.2,0.5h-0.7
		L49.4,27.4z M45.3,28.9l-0.3,1l-0.1-1H45.3z M45.5,32L45.5,32L45.5,32L45.5,32z M46.5,28.9H49h2h2.5v3.3h-7V28.9z M48.4,38.9
		l-1.9-1.2v-3.3l1.9-1.1h3.1l1.9,1.1v3.3l-1.9,1.2l0,0H48.4L48.4,38.9z M50.9,39.9l3.8,7.8h-9.4l3.8-7.8H50.9z M52.5,65.2h-4.9
		l1.8-4.4h1.3L52.5,65.2z M45,59.8V48.7h10v11.1C55,59.8,45,59.8,45,59.8z"/>
	<rect x="49.5" y="68" width="1" height="7"/>
</g>
</svg>
