<?xml version="1.0" encoding="utf-8"?>
<!-- Generator: Adobe Illustrator 23.0.4, SVG Export Plug-In . SVG Version: 6.00 Build 0)  -->
<svg version="1.1" id="Ebene_1" xmlns="http://www.w3.org/2000/svg" xmlns:xlink="http://www.w3.org/1999/xlink" x="0px" y="0px"
	 viewBox="0 0 100 100" style="enable-background:new 0 0 100 100;" xml:space="preserve">
<g>
	<path d="M58.7,55.8l-3.4-8.1h0.1V34.3l-2.9-9.2l0,0v-5.9l-1.3-4.7h-2.4l-1.3,4.6v6l0,0l-2.9,9v13.6h0.1l-3.3,7.9V76h1.2l-0.7,2.8
		H46L45.2,76h3.4L48,78.8h4L51.3,76h3.4l-0.6,2.8h4.1L57.5,76h1.2V55.8z M49.6,15.5h0.8l1.1,3.8v5.4h-3v-5.4L49.6,15.5z M45.6,34.4
		l2.8-8.7h3.3l2.8,8.7v12.3h-8.8V34.4H45.6z M54.3,47.8l3.2,7.5H42.6l3.2-7.5H54.3z M44.6,77.8H43l0.4-1.8h0.7L44.6,77.8z
		 M50.8,77.8h-1.5l0.5-1.8h0.6L50.8,77.8z M57,77.8h-1.5l0.4-1.8h0.7L57,77.8z M57.3,75H55h-3.9h-2.2H45h-2.3h-0.4V56.3h15.4V75
		H57.3z"/>
	<rect x="43.3" y="80.1" width="1" height="4.9"/>
	<rect x="49.6" y="80.1" width="1" height="4.9"/>
	<rect x="55.7" y="80.1" width="1" height="4.9"/>
</g>
</svg>
