<?xml version="1.0" encoding="utf-8"?>
<!-- Generator: Adobe Illustrator 23.0.4, SVG Export Plug-In . SVG Version: 6.00 Build 0)  -->
<svg version="1.1" id="Ebene_1" xmlns="http://www.w3.org/2000/svg" xmlns:xlink="http://www.w3.org/1999/xlink" x="0px" y="0px"
	 viewBox="0 0 100 100" style="enable-background:new 0 0 100 100;" xml:space="preserve">
<path d="M76.6,77.8c-1.2-1.1-2.8-1.4-4.2-0.9L60.1,64.6c-1.3-1.3-3.1-1.8-4.8-1.8c3.2-2.3,5.3-6,5.3-10.2v-3.4c2.9,1.9,6.4,3,10.1,3
	c2.2,0,4-1.8,4-4.1c0,0,0,0,0-0.1c0-0.2,0-0.5-0.1-0.7c-0.4-1.8-2-3.2-4-3.2c-2.3,0-4.4-0.7-6.1-1.9V32.1h-4.8
	c-1.1-2.8-3.2-5.1-5.9-6.4c2.1-1.7,3.4-4.2,3.4-7.1c0-5-4.1-9.1-9.1-9.1c-3.4,0-6.4,1.9-8,4.7c-1.1-0.2-2.3-0.4-3.4-0.4
	c-8.7,0-15.8,7.1-15.8,15.8v10.7c0,8.5,6.8,15.4,15.2,15.8c0.5,1.8,1.4,3.5,2.7,4.9c-1.2,0.2-2.3,0.8-3.2,1.7L23.3,75.1
	c-2.4,2.5-2.4,6.5,0,8.9c0.2,0.2,0.3,0.3,0.5,0.4l5.6,5.6l2-2c1.1-1.2,1.4-2.8,0.9-4.2l12.3-12.3c1.7-1.8,2.2-4.4,1.4-6.6
	c0.7,0.1,1.5,0.2,2.2,0.2c1,0,2-0.1,2.9-0.4c-2.2,2.5-2.2,6.4,0.2,8.7L63.7,86c1.3,1.2,2.9,1.8,4.5,1.8c1.6,0,3.2-0.6,4.4-1.8
	c0.2-0.2,0.3-0.4,0.4-0.5l5.6-5.7L76.6,77.8z M71.7,46c1,0,1.8,0.7,2,1.6c0,0.2,0.1,0.4,0.1,0.5c0,1.1-1,2-2.1,2
	c-1.2,0-2.1-0.9-2.1-2.1S70.5,46,71.7,46z M64.6,45.2v-1.7c1.8,1.1,3.8,1.7,6,1.7c-1.1,0.4-2,1.6-2,2.9c0,1.7,1.3,3,3,3.1
	c-0.2,0.1-0.5,0.1-0.8,0.1c-3.7,0-7.2-1.2-10.1-3.1v-3H64.6z M60.7,44.2v-4.6c0.8,1.2,1.8,2.3,2.9,3.2v1.4H60.7z M60.1,33h3.5v0.1
	v0.1v8.3v0.1c-1.3-1.1-2.3-2.5-2.9-4.1v-0.1v-0.5c0-1.3-0.2-2.5-0.6-3.7h0.058C60.137,33.133,60.122,33.067,60.1,33z M73.9,77.7
	c0.4,0,1,0.2,1.5,0.4l-4,4c-0.6-1.1-0.5-2.6,0.4-3.6C72.4,77.9,73.1,77.7,73.9,77.7z M59.7,36.8v7.4H56V33.1h3.1
	C59.5,34.3,59.7,35.5,59.7,36.8z M48.2,10.5c4.5,0,8.1,3.6,8.1,8.1c0,2.1-0.8,3.9-2,5.4L42.8,12.6C44.2,11.3,46.1,10.5,48.2,10.5z
	 M42.1,13.3l11.5,11.4c-1.4,1.3-3.3,2-5.4,2c-4.5,0-8.1-3.6-8.1-8.1C40.1,16.6,40.9,14.7,42.1,13.3z M22,40.3V29.6
	c0-8.2,6.6-14.8,14.8-14.8c1,0,2,0.1,3,0.3c-0.4,1.1-0.7,2.3-0.7,3.5c0,2.9,1.3,5.4,3.4,7.1c-2.5,1.3-4.5,3.4-5.7,6
	c-5.9,3.2-9.9,9.5-9.9,16.6c0,2.2,1.9,4,4.1,4s4-1.8,4-4c0-1.3,0.3-2.6,0.7-3.8v8.2c0,0.8,0.1,1.6,0.2,2.4
	C28.2,54.6,22,48.2,22,40.3z M29.1,49.1c0-1.2,0.9-2.1,2.1-2.1s2.1,0.9,2.1,2.1c0,1.2-0.9,2.1-2.1,2.1S29.1,50.3,29.1,49.1z
	 M34,47.8c-0.5-1.1-1.6-1.8-2.8-1.8c-1.7,0-3.1,1.4-3.1,3.1c0,0.1,0,0.2,0,0.3c-0.1-0.3-0.2-0.7-0.2-1.1c0-9.9,8-17.9,17.9-17.9
	c1.7,0,3,1.3,3,3c0,1.7-1.3,3.1-3,3.1C39.5,36.5,34.3,41.5,34,47.8z M36.7,52.7V42.5c1.9-3,5.3-5,9.1-5c2.2,0,4-1.8,4-4.1
	c0-2.2-1.8-4-4-4c-2.7,0-5.2,0.6-7.5,1.6c1.2-2,3-3.6,5.1-4.6c1.4,0.9,3,1.4,4.8,1.4c1.1,0,2.2-0.2,3.2-0.6c0.1,0.7,0.2,1.6,0.2,2.4
	v10.7C51.6,48.4,45,55,37,55.1C36.8,54.3,36.7,53.5,36.7,52.7z M25.2,84.4l1.1-1.1l0.5,0.5l-1.1,1.1L25.2,84.4z M26.3,85.5l1.1-1.1
	l0.1,0.1l-1,1.2L26.3,85.5z M27.2,86.4l1.1-1.1l0.2,0.2l-1.1,1.1L27.2,86.4z M28.1,87.3l1.1-1.1l0.2,0.2l-1.1,1.1L28.1,87.3z
	 M29.4,88.6L29,88.2l1.1-1.1l0.4,0.4L29.4,88.6z M31.1,86.7l-4-4c1.1-0.6,2.6-0.5,3.5,0.5C31.6,84.1,31.7,85.5,31.1,86.7z
	 M31.7,82.8c-0.1,0-0.2-0.2-0.4-0.4c-1.6-1.5-4.1-1.5-5.6,0l-1.2,1.2c-0.2-0.1-0.3-0.3-0.5-0.4c-2-2-2-5.4,0-7.5l4-4.1l7.5,7.4
	L31.7,82.8z M36.3,78.4L28.8,71l2.8-2.8l7.5,7.4L36.3,78.4z M43.8,70.8l-4,4l-7.5-7.4l4.1-4.1c1-1,2.4-1.5,3.7-1.5
	c1.4,0,2.7,0.5,3.8,1.5C45.9,65.4,45.9,68.7,43.8,70.8z M48.2,64.2c-0.9,0-1.9-0.1-2.7-0.3c-0.3-0.5-0.6-0.9-1-1.3
	c-1.2-1.2-2.9-1.8-4.5-1.8c-1.3-1.3-2.3-2.9-2.9-4.8c8.5-0.2,15.4-7.2,15.4-15.8V29.6c0-1-0.1-2-0.3-2.9c0.2-0.1,0.4-0.2,0.6-0.4
	c2.5,1.2,4.6,3.2,5.7,5.8H55v13.1h4.7v7.5C59.6,59,54.4,64.2,48.2,64.2z M52,72.8c-2.1-2-2.1-5.3,0-7.4c1-1,2.4-1.5,3.7-1.5
	c1.4,0,2.7,0.5,3.8,1.5l4.1,4.1l-7.5,7.4L52,72.8z M56.8,77.6l7.5-7.4l2.8,2.8l-7.5,7.4L56.8,77.6z M71.8,85.2c-2,2.1-5.3,2.1-7.4,0
	l-4.1-4.1l7.5-7.4l3.7,3.7c-0.2,0.1-0.3,0.3-0.5,0.4c-1.5,1.6-1.5,4.1,0,5.6l1.2,1.2C72.1,84.8,71.9,85,71.8,85.2z M73,84l-1-1
	l0.4-0.5l1,1L73,84z M74.2,82.8l-1-1l0.2-0.2l1,1L74.2,82.8z M75,81.9l-1-1l0.1-0.1l1,1L75,81.9z M75.9,81l-1-1l0.1-0.1l1,1L75.9,81
	z M75.8,79.2l0.4-0.4l1,1l-0.4,0.4L75.8,79.2z"/>
<path d="M60.7,36.9v-0.2c0-1.228-0.185-2.366-0.542-3.5H60.1C60.5,34.4,60.7,35.6,60.7,36.9z"/>
<path d="M60.7,37.4v0.1c0.6,1.6,1.6,3,2.9,4.1v-0.1C62.3,40.4,61.3,39,60.7,37.4z"/>
</svg>
